<?xml version="1.0" standalone="no"?>
<!DOCTYPE svg PUBLIC "-//W3C//DTD SVG 20010904//EN"
 "http://www.w3.org/TR/2001/REC-SVG-20010904/DTD/svg10.dtd">
<svg version="1.0" xmlns="http://www.w3.org/2000/svg"
 width="512.000000pt" height="512.000000pt" viewBox="0 0 512.000000 512.000000"
 preserveAspectRatio="xMidYMid meet">
<metadata>
Created by potrace 1.14, written by Peter Selinger 2001-2017
</metadata>
<g transform="translate(0.000000,512.000000) scale(0.100000,-0.100000)"
fill="#000000" stroke="none">
<path d="M2190 5113 c-59 -23 -94 -75 -104 -153 -3 -25 -8 -67 -11 -95 -9 -73
-12 -104 -20 -160 -9 -68 -13 -108 -14 -121 -1 -10 -15 -16 -66 -30 -93 -24
-259 -92 -379 -154 l-90 -47 -179 139 c-99 76 -191 141 -204 144 -13 4 -44 3
-68 -1 -43 -6 -58 -19 -290 -250 -134 -134 -253 -258 -265 -277 -23 -39 -26
-98 -6 -136 8 -15 73 -101 144 -192 l130 -165 -44 -83 c-56 -104 -112 -241
-149 -359 -16 -51 -33 -93 -39 -93 -6 0 -81 -9 -166 -20 -85 -11 -177 -23
-205 -26 -66 -8 -111 -30 -138 -68 -22 -31 -22 -34 -22 -406 0 -347 1 -377 18
-402 26 -38 74 -64 132 -71 28 -4 126 -16 220 -27 93 -11 170 -22 171 -23 0
-1 15 -47 33 -102 17 -55 36 -109 41 -120 5 -11 23 -54 40 -95 18 -41 49 -106
70 -145 l38 -70 -139 -178 c-76 -98 -142 -189 -145 -203 -3 -13 -3 -44 0 -69
7 -42 21 -58 255 -294 136 -137 263 -256 280 -266 34 -17 92 -18 126 -2 20 10
120 86 275 208 l84 67 94 -49 c99 -52 277 -124 380 -154 34 -10 62 -22 62 -26
0 -4 7 -59 15 -121 8 -62 17 -134 20 -160 3 -27 8 -69 11 -95 7 -64 30 -109
68 -136 31 -22 36 -22 396 -25 363 -2 365 -2 404 20 79 46 76 19 76 680 l0
587 -42 -15 c-48 -17 -151 -44 -188 -50 -138 -22 -329 -25 -420 -8 -19 3 -46
8 -60 11 -456 81 -869 427 -1033 863 -109 291 -108 667 3 951 162 413 532 733
970 839 110 27 181 34 310 34 159 0 284 -21 418 -68 l42 -15 0 585 c0 648 2
630 -64 677 -31 22 -36 22 -396 24 -201 1 -372 -1 -380 -4z"/>
<path d="M4465 4624 c-179 -30 -317 -138 -397 -311 -17 -37 -33 -70 -35 -72
-2 -3 -72 -5 -157 -6 -146 -1 -156 -2 -190 -25 -21 -15 -104 -116 -196 -240
l-160 -215 0 -228 c0 -286 -11 -286 201 -2 73 99 136 182 139 185 3 3 38 50
79 105 40 55 79 105 86 111 8 5 55 10 106 9 71 0 94 -4 100 -15 4 -8 22 -46
40 -85 61 -131 198 -241 346 -280 213 -56 474 38 591 212 67 101 88 162 98
284 23 307 -210 564 -526 582 -30 2 -87 -2 -125 -9z"/>
<path d="M2488 3615 c-2 -2 -29 -6 -60 -9 -220 -26 -461 -149 -632 -324 -235
-240 -336 -583 -272 -924 66 -352 324 -653 674 -785 151 -56 340 -81 482 -62
136 19 165 26 283 74 l67 27 0 948 0 948 -47 20 c-132 56 -246 81 -385 86 -59
2 -108 2 -110 1z"/>
<path d="M4465 3103 c-87 -16 -220 -86 -280 -147 -62 -65 -125 -163 -139 -218
l-6 -28 -355 0 -355 0 0 -150 0 -150 353 0 354 0 11 -25 c7 -14 12 -32 12 -38
0 -26 101 -166 147 -205 109 -90 213 -127 358 -126 224 1 404 109 495 299 41
86 48 115 57 213 21 254 -168 508 -421 567 -60 14 -174 18 -231 8z"/>
<path d="M3330 1592 l0 -229 169 -225 c129 -170 178 -228 203 -239 23 -10 78
-14 182 -14 l148 0 28 -62 c50 -109 110 -185 195 -243 214 -148 519 -118 706
69 109 110 159 240 154 407 -3 143 -57 266 -163 370 -275 271 -740 178 -891
-179 l-26 -63 -98 1 -99 0 -224 300 c-124 165 -238 308 -254 318 l-30 19 0
-230z"/>
</g>
</svg>
